<svg width="31" height="29" viewBox="0 0 31 29" fill="none" xmlns="http://www.w3.org/2000/svg">
<path d="M15.1385 0.250002C11.8331 0.248391 8.61811 1.33408 5.98492 3.34115C3.35172 5.34822 1.44521 8.16623 0.556808 11.3644C-0.331598 14.5627 -0.15303 17.9652 1.06522 21.0518C2.28347 24.1385 4.47438 26.7395 7.30307 28.4573C7.87873 28.8082 8.53922 28.9938 9.21259 28.9937H9.26193C9.75392 28.9964 10.2416 28.901 10.6966 28.7132C11.1517 28.5253 11.5651 28.2486 11.913 27.8991C12.2609 27.5497 12.5363 27.1343 12.7234 26.6772C12.9104 26.2201 13.0053 25.7302 13.0026 25.236V18.3125C13.0019 18.274 12.9864 18.2374 12.9593 18.2102C12.9323 18.183 12.8958 18.1674 12.8575 18.1667H10.5823C10.2962 18.1773 10.0109 18.1299 9.74338 18.0272C9.4759 17.9245 9.23177 17.7687 9.02559 17.5691C8.81942 17.3695 8.65542 17.1302 8.54341 16.8655C8.43139 16.6007 8.37366 16.3161 8.37366 16.0284C8.37366 15.7408 8.43139 15.4561 8.54341 15.1914C8.65542 14.9267 8.81942 14.6873 9.02559 14.4877C9.23177 14.2881 9.4759 14.1323 9.74338 14.0296C10.0109 13.927 10.2962 13.8795 10.5823 13.8901H19.6802C19.9663 13.8795 20.2517 13.927 20.5192 14.0296C20.7866 14.1323 21.0308 14.2881 21.237 14.4877C21.4431 14.6873 21.6071 14.9267 21.7191 15.1914C21.8312 15.4561 21.8889 15.7408 21.8889 16.0284C21.8889 16.3161 21.8312 16.6007 21.7191 16.8655C21.6071 17.1302 21.4431 17.3695 21.237 17.5691C21.0308 17.7687 20.7866 17.9245 20.5192 18.0272C20.2517 18.1299 19.9663 18.1773 19.6802 18.1667H17.4108C17.3726 18.1674 17.3361 18.183 17.309 18.2102C17.282 18.2374 17.2665 18.274 17.2657 18.3125V25.236C17.2726 26.233 17.6703 27.1872 18.3727 27.8917C19.075 28.5961 20.0255 28.9942 21.018 28.9995H21.0674C21.7419 28.9991 22.403 28.8103 22.9769 28.4544C25.8014 26.7348 27.9882 24.1341 29.2037 21.0492C30.4191 17.9643 30.5964 14.5647 29.7084 11.3691C28.8205 8.17355 26.9161 5.35761 24.2859 3.35101C21.6557 1.34441 18.4442 0.257382 15.1414 0.255838L15.1385 0.250002ZM4.40104 18.4582C3.92211 18.4588 3.45376 18.3166 3.05531 18.0497C2.65685 17.7828 2.34618 17.4031 2.16264 16.9587C1.97909 16.5143 1.93092 16.0252 2.02421 15.5533C2.11751 15.0815 2.34808 14.648 2.68674 14.3078C3.0254 13.9676 3.45691 13.736 3.92667 13.6423C4.39643 13.5486 4.88331 13.5969 5.32568 13.7813C5.76805 13.9657 6.14602 14.2778 6.41174 14.678C6.67747 15.0783 6.819 15.5488 6.81842 16.0299C6.81691 16.6714 6.56333 17.2865 6.11282 17.7412C5.66231 18.1959 5.05129 18.4536 4.41264 18.4582H4.40104ZM15.1385 11.2227C14.3957 11.2233 13.6694 11.0026 13.0515 10.5884C12.4335 10.1743 11.9518 9.58532 11.6671 8.89608C11.3824 8.20685 11.3076 7.44829 11.4522 6.71635C11.5968 5.98442 11.9542 5.312 12.4793 4.78415C13.0043 4.2563 13.6734 3.89675 14.402 3.75096C15.1305 3.60517 15.8857 3.67969 16.572 3.96511C17.2584 4.25054 17.845 4.73405 18.2578 5.35445C18.6705 5.97486 18.8908 6.70428 18.8908 7.45048C18.8848 8.44801 18.4874 9.40293 17.7849 10.108C17.0824 10.8131 16.1316 11.2116 15.1385 11.2169V11.2227ZM25.8325 18.4582C25.3537 18.4582 24.8856 18.3155 24.4875 18.0483C24.0895 17.781 23.7793 17.4011 23.5962 16.9567C23.4131 16.5122 23.3653 16.0233 23.4589 15.5516C23.5525 15.0799 23.7833 14.6467 24.1221 14.3068C24.4609 13.9669 24.8924 13.7356 25.3621 13.6421C25.8318 13.5486 26.3185 13.5971 26.7607 13.7816C27.2029 13.9661 27.5807 14.2781 27.8463 14.6783C28.1119 15.0785 28.2534 15.5489 28.2528 16.0299C28.2512 16.6739 27.9957 17.2912 27.542 17.7463C27.0884 18.2015 26.4737 18.4574 25.8325 18.4582Z" fill="white"/>
</svg>
